<?xml version="1.0" encoding="UTF-8"?>
<!DOCTYPE svg PUBLIC "-//W3C//DTD SVG 1.1//EN" "http://www.w3.org/Graphics/SVG/1.1/DTD/svg11.dtd">
<!-- Creator: CorelDRAW -->
<svg xmlns="http://www.w3.org/2000/svg" xml:space="preserve" width="12.4178cm" height="11.5358cm" version="1.1" style="shape-rendering:geometricPrecision; text-rendering:geometricPrecision; image-rendering:optimizeQuality; fill-rule:evenodd; clip-rule:evenodd"
viewBox="0 0 12417.78 11535.82"
 xmlns:xlink="http://www.w3.org/1999/xlink"
 xmlns:xodm="http://www.corel.com/coreldraw/odm/2003">
 <defs>
  <style type="text/css">
   <![CDATA[
    .fil4 {fill:#FEFEFE;fill-rule:nonzero}
    .fil1 {fill:#D2D3D5;fill-rule:nonzero}
    .fil12 {fill:#606062;fill-rule:nonzero}
    .fil10 {fill:#4B4B4D;fill-rule:nonzero}
    .fil11 {fill:#373435;fill-rule:nonzero}
    .fil16 {fill:#FBD2D1;fill-rule:nonzero}
    .fil13 {fill:#F69EA1;fill-rule:nonzero}
    .fil14 {fill:#F48C8D;fill-rule:nonzero}
    .fil0 {fill:#EFEFEF;fill-rule:nonzero}
    .fil9 {fill:#EAEAEA;fill-rule:nonzero}
    .fil8 {fill:#E5E4E4;fill-rule:nonzero}
    .fil7 {fill:#D9DAD9;fill-rule:nonzero}
    .fil2 {fill:#00B3A6;fill-rule:nonzero}
    .fil3 {fill:#00A859;fill-rule:nonzero}
    .fil6 {fill:#00A859;fill-rule:nonzero}
    .fil15 {fill:#99CC33;fill-rule:nonzero}
    .fil5 {fill:#99CC33;fill-rule:nonzero}
   ]]>
  </style>
 </defs>
 <g id="Camada_x0020_1">
  <metadata id="CorelCorpID_0Corel-Layer"/>
  <path class="fil0" d="M1823.16 10666.86c1215.42,579.3 2808.44,868.96 4401.46,868.97 1593.02,0.01 3186.03,-289.63 4401.43,-868.93 2430.86,-1158.62 2430.86,-3037.07 0,-4195.62 -2430.85,-1158.63 -6372.08,-1158.63 -8802.92,-0.04 -1215.43,579.28 -1823.14,1338.54 -1823.13,2097.8 0,759.27 607.72,1518.53 1823.16,2097.82z"/>
  <g id="_1910505929072">
   <path class="fil1" d="M9868.34 10579.68c316.55,150.88 829.81,150.88 1146.39,0 316.55,-150.88 316.55,-395.5 0,-546.42 -316.58,-150.84 -829.84,-150.84 -1146.39,0 -316.58,150.92 -316.58,395.54 0,546.42z"/>
   <g>
    <path class="fil2" d="M1962.34 10083.13l286.6 -165.49c0,0 236.45,-173.75 353.53,-496.4 88.59,-244.12 76.37,-429.85 12.84,-522.93 -78.15,-114.54 -280.32,-94.53 -288.35,146.97 -15.81,475.55 -154.56,804.56 -364.62,1037.85z"/>
    <path class="fil3" d="M1962.34 10083.13c210.06,-233.29 348.81,-562.3 364.62,-1037.85 4.99,-149.93 84.79,-214.48 163.31,-214.48 47.94,0 95.41,24.09 125.04,67.51 31.64,46.36 50.56,115.72 50.63,203.82 0.07,88.76 -19,196.59 -63.47,319.11 -117.08,322.65 -353.53,496.4 -353.53,496.4l-286.6 165.49z"/>
    <path class="fil4" d="M1962.37 10100.76c-5.61,0 -11.1,-2.64 -14.52,-7.62 -5.54,-8 -3.55,-18.97 4.46,-24.51 663.11,-458.86 534.65,-1098.13 533.28,-1104.55 -2.05,-9.49 4.02,-18.91 13.52,-20.95 9.6,-2.12 18.91,4.01 20.97,13.5 1.43,6.63 135.44,668.27 -547.69,1140.99 -3.06,2.12 -6.56,3.14 -10.02,3.14z"/>
    <path class="fil5" d="M1389.16 10414.06c0,0 -99.77,-81.23 -75.64,-191.2 24.14,-110 88.5,-189.08 -22.12,-330.94 -110.63,-141.92 -139.22,-330.93 -9.11,-433.46 100.57,-79.26 257.52,33.06 314.21,-176.95 41.34,-153.1 27.23,-492.09 222.55,-604.88 195.3,-112.78 316.58,57.01 286.58,286.92 -26.82,205.7 -64.59,403.79 -35.47,457.69 56.98,105.42 154.92,91.27 150.45,284.52 -4.15,179.95 -174.29,328.9 -174.29,328.9l-657.16 379.4z"/>
    <path class="fil4" d="M1716.96 10242.4c-8.81,0 -16.42,-6.56 -17.51,-15.52 -50.49,-418 69.84,-1139.72 169.35,-1354.24 4.08,-8.86 14.5,-12.77 23.43,-8.57 8.83,4.09 12.67,14.57 8.57,23.39 -97.77,210.82 -214.59,935.67 -166.32,1335.22 1.16,9.63 -5.73,18.42 -15.39,19.58l-2.13 0.14z"/>
    <path class="fil4" d="M1707.42 9917l-7.75 -1.8c-122.39,-59.82 -199.98,-272.42 -203.23,-281.44 -3.29,-9.14 1.46,-19.22 10.63,-22.55 9.17,-3.28 19.25,1.45 22.58,10.66 0.73,2.04 75.97,208.07 185.53,261.66 8.75,4.26 12.37,14.81 8.1,23.59 -3.08,6.25 -9.34,9.88 -15.86,9.88z"/>
    <path class="fil4" d="M1705.41 10057.87c-6.99,0 -13.6,-4.21 -16.37,-11.08 -3.63,-9.03 0.77,-19.3 9.81,-22.93 205.98,-82.55 334.41,-328.02 335.67,-330.49 4.48,-8.64 15.1,-12.09 23.76,-7.57 8.67,4.43 12.06,15.08 7.59,23.77 -5.44,10.55 -135.82,259.65 -353.89,347.03l-6.57 1.27z"/>
   </g>
   <path class="fil6" d="M8404.98 8438.91c0,0 -154.27,-249.48 -169.15,-521.08 -14.89,-271.64 44.73,-384.36 126.5,-416.74 81.78,-32.35 87.99,67.31 130.25,126.4 42.26,59.09 127.7,25.26 159.24,-158.43 31.58,-183.66 147.39,-494.95 386.96,-554.36 264.62,-65.54 122.67,244.83 56.27,365.94 -66.46,121.11 -118.25,286.03 -74.43,330.94 43.78,44.91 111.69,-38.07 176.84,38.84 78.64,92.85 -165.8,426.68 -306.1,507.68l-486.38 280.81z"/>
   <path class="fil4" d="M8616.3 8333.86l-0.92 -0.04c-9.74,-0.49 -17.18,-8.82 -16.69,-18.52 38.84,-722.35 391.38,-1222.66 394.97,-1227.63 5.68,-7.94 16.69,-9.74 24.59,-4.06 7.9,5.65 9.74,16.69 4.06,24.59 -3.49,4.9 -350.13,497.35 -388.41,1208.97 -0.46,9.38 -8.25,16.69 -17.6,16.69z"/>
   <path class="fil4" d="M8636.48 8125.61l-8.58 -2.19c-98.77,-54.68 -153.49,-216.92 -155.78,-223.8 -3.04,-9.24 1.94,-19.22 11.22,-22.29 9.2,-3.18 19.26,1.97 22.29,11.18 0.5,1.55 52.67,156.07 139.38,204.05 8.51,4.69 11.61,15.41 6.88,23.95 -3.21,5.82 -9.24,9.1 -15.41,9.1z"/>
   <path class="fil4" d="M8653.76 8018.68c-7.9,0 -15.1,-5.29 -17.11,-13.29 -2.4,-9.49 3.32,-19.05 12.77,-21.42 254.64,-64.42 342.83,-197.87 343.68,-199.18 5.26,-8.18 16.19,-10.54 24.34,-5.36 8.22,5.22 10.66,16.09 5.43,24.27 -3.77,5.96 -95.39,146.33 -364.77,214.42l-4.34 0.56z"/>
   <path class="fil2" d="M4567.47 7890.41c0,0 -338.28,-82.47 -355.89,-715.89 -19.01,-683.72 82.91,-1481.35 -316.08,-1546.19 -398.96,-64.91 -622.83,424.32 -617.7,992.79 4.49,499.15 205.47,1582.17 1289.63,1794.44l0.04 -525.15z"/>
   <path class="fil3" d="M4567.43 8415.56c-1084.16,-212.27 -1285.14,-1295.29 -1289.63,-1794.44 -0.07,-6.24 -0.1,-12.52 -0.1,-18.77 -0.08,-526.41 196.9,-979.84 547.8,-979.84 22.69,0 46.04,1.91 70,5.82 287.33,46.71 314.89,473.5 314.92,964.11 0,116.42 -1.55,236.4 -1.55,355.78 0,76.05 0.63,151.87 2.71,226.3 17.61,633.42 355.89,715.89 355.89,715.89l-0.04 525.15z"/>
   <path class="fil4" d="M4567.47 8350.44l-3.18 -0.29c-243.98,-44.41 -442.49,-178.61 -590.16,-398.85 -438.29,-653.83 -300.18,-1874.3 -254.85,-2087.52 2.01,-9.53 11.36,-15.56 20.92,-13.58 9.53,2.04 15.6,11.39 13.59,20.91 -44.84,210.82 -181.76,1416.94 249.66,2060.54 142.13,212.02 332.95,341.14 567.16,383.79 9.59,1.77 15.94,10.97 14.18,20.53 -1.55,8.51 -8.96,14.47 -17.32,14.47z"/>
   <path class="fil5" d="M4567.5 9976.56c-349.78,47.42 -917.89,46.57 -1245.13,-211.53 -327.25,-258.12 -259.18,-480.54 -133.29,-573.33 125.88,-92.81 235.21,-198.85 18.65,-404.77 -216.55,-205.92 -564.64,-536.82 -677.2,-1033.25 -112.58,-496.4 -57.14,-806.63 164.37,-910.1 214.96,-100.33 271.56,59.09 403.13,387.92 131.55,328.89 427.65,46.95 680.77,149.61 253.15,102.62 243.2,305.86 259.18,480.55 15.95,174.66 99.56,222.96 242.86,222.96 143.33,0 286.56,82.73 286.59,248.18l0.07 1643.76z"/>
   <path class="fil4" d="M4567.5 9400.23l-4.76 -0.66c-15.13,-4.24 -376.87,-109.5 -903.32,-593.13 -560.84,-515.2 -825.65,-1287.61 -828.26,-1295.33 -3.12,-9.24 1.85,-19.26 11.08,-22.37 9.26,-3.03 19.25,1.87 22.35,11.08 2.58,7.69 264.68,771.74 818.67,1280.65 519.43,477.13 885.37,584.09 889,585.16 9.39,2.64 14.82,12.34 12.21,21.77 -2.19,7.71 -9.24,12.83 -16.97,12.83z"/>
   <path class="fil4" d="M3805.89 8929.59c-7.06,0 -13.72,-4.26 -16.44,-11.22 -113.21,-290.93 -138.85,-912.84 -139.88,-939.16 -0.38,-9.74 7.2,-17.92 16.94,-18.35 9.03,0.11 17.92,7.2 18.31,16.97 0.24,6.35 26.46,642.34 137.51,927.73 3.53,9.07 -0.99,19.3 -10.05,22.83l-6.39 1.2z"/>
   <path class="fil4" d="M3802.93 9348.03c-54.82,0 -92.75,-4.34 -97.33,-4.88 -9.67,-1.13 -16.58,-9.91 -15.42,-19.61 1.13,-9.63 9.84,-16.8 19.58,-15.38 3.28,0.28 331.5,37.39 482.28,-116.31 6.77,-7.02 17.99,-7.02 24.94,-0.28 6.95,6.8 7.06,18.02 0.25,24.94 -110.35,112.5 -299.37,131.52 -414.3,131.52z"/>
   <path class="fil7" d="M3369.24 4501.46c-160.67,126.29 -209.6,153.84 -238.67,-14.89 -29.04,-168.74 64.92,-426.05 225.59,-552.35 160.66,-126.33 222.32,-135.74 251.37,32.99 29.06,168.73 -77.63,407.92 -238.29,534.25zm639.69 -724.96l-37.89 -219.96 -196.26 129.15c-19.66,-37.57 -44.92,-67.8 -74.62,-90.59l93.91 -254.04 -174.86 -39.08 -129.19 246.13c-42.8,6.6 -87.99,21.02 -134.56,43.81l-55.91 -185.52 -209.42 164.64 13.71 218.72c-42.39,47.13 -81.18,98.71 -115.78,153l-173.03 -8.54 -121.31 271.93 148.58 63.39c-15.68,58.49 -25.78,116.52 -29.33,172.33l-188.63 173.46 37.88 219.96 196.25 -129.15c19.65,37.6 44.92,67.8 74.63,90.59l-93.93 254.04 174.88 39.08 184.79 -180.16c42.82,-6.56 32.39,-86.99 78.96,-109.78l55.9 185.52 209.43 -164.64 -5.4 -86.01c42.39,-47.16 202.45,-151.23 237.05,-205.45l43.44 -71.72 121.29 -271.93 -56.52 -102.41 -62.69 -133.31 188.63 -173.46z"/>
   <polygon class="fil0" points="3619.21,3301.98 3847.99,3433.88 3718.8,3680.05 3490.02,3548.11 "/>
   <polygon class="fil0" points="4199.82,3688.48 4003.57,3817.63 3774.78,3685.69 3971.04,3556.54 "/>
   <polygon class="fil7" points="4168.32,4317.59 4019.73,4254.23 3790.96,4122.29 3939.51,4185.68 "/>
   <polygon class="fil7" points="2839.17,5050.77 3067.97,5182.7 3161.87,4928.67 2933.1,4796.73 "/>
   <polygon class="fil7" points="3562.49,5117.37 3333.7,4985.43 3277.8,4799.91 3506.57,4931.84 "/>
   <path class="fil8" d="M3598.03 4633.39c-160.66,126.3 -314.48,91.9 -343.53,-76.83 -29.06,-168.73 77.64,-407.92 238.29,-534.25 160.67,-126.29 314.46,-91.93 343.53,76.8 29.03,168.77 -77.63,407.95 -238.29,534.28zm639.68 -724.95l-37.89 -219.96 -196.25 129.15c-19.65,-37.6 -44.94,-67.8 -74.65,-90.59l93.95 -254.04 -174.88 -39.12 -129.19 246.17c-42.8,6.59 -88,21.02 -134.57,43.81l-55.9 -185.52 -209.42 164.64 13.71 218.69c-42.37,47.16 -81.16,98.74 -115.78,153.03l-173.03 -8.54 -121.29 271.92 148.57 63.36c-15.7,58.53 -25.77,116.53 -29.34,172.37l-188.64 173.46 37.88 219.92 196.27 -129.11c19.65,37.6 44.91,67.8 74.61,90.59l-93.9 254.03 174.84 39.09 129.2 -246.13c42.8,-6.6 87.99,-21.06 134.56,-43.82l55.92 185.53 209.41 -164.64 -13.71 -218.72c42.39,-47.13 81.2,-98.75 115.8,-153l173.01 8.53 121.32 -271.95 -148.59 -63.36c15.7,-58.49 25.78,-116.52 29.31,-172.33l188.67 -173.46z"/>
   <polygon class="fil0" points="3528.33,3538.34 3299.55,3406.4 3090.13,3571.04 3318.91,3702.98 "/>
   <polygon class="fil7" points="3090.13,3571.04 3103.84,3789.76 3332.62,3921.67 3318.91,3702.98 "/>
   <polygon class="fil0" points="3216.84,4074.7 2988.06,3942.76 2815.03,3934.22 3043.81,4066.16 "/>
   <polygon class="fil7" points="2815.03,3934.22 2693.72,4206.15 2922.52,4338.08 3043.81,4066.16 "/>
   <polygon class="fil0" points="3041.75,4573.81 2812.97,4441.87 2624.34,4615.33 2853.11,4747.27 "/>
   <polygon class="fil7" points="2890.99,4967.19 2662.22,4835.29 2624.34,4615.33 2853.11,4747.27 "/>
   <polygon class="fil0" points="3847.99,3433.88 3619.21,3301.98 3794.07,3341.06 4022.87,3473 "/>
   <path class="fil7" d="M2069.13 3599.09c-218.27,126.01 -353.94,36.65 -353.94,-215.41 0,-252.03 180.37,-560.78 398.65,-686.79 218.27,-126.01 350.5,-34.32 350.5,217.67 0,252.06 -176.95,558.51 -395.21,684.53zm914.78 -820.21l0 -328.54 -261.45 117.86c-15.77,-60.68 -39.78,-112.68 -70.63,-155.61l164.73 -332.11 -201.18 -116.17 -205.27 308.75c-52.6,-5.25 -109.64,-0.07 -170.07,16.62l-28.66 -285.36 -284.49 164.29 -28.67 318.45c-60.44,53.06 -117.49,113.73 -170.07,179.7l-205.28 -71.68 -201.18 348.44 164.73 141.92c-30.84,78.53 -54.85,158.29 -70.62,237.17l-261.44 184.05 0 328.5 261.44 -117.86c15.77,60.68 39.78,112.68 70.62,155.61l-164.73 332.11 201.18 116.17 205.28 -308.75c52.58,5.29 109.63,0.07 170.07,-16.62l28.67 285.36 284.49 -164.25 28.66 -318.45c84.78,-28.3 175.5,-93.91 228.09,-159.92l147.25 51.86 201.18 -348.44 -123.44 -106.36c30.84,-78.53 34.13,-204.08 29.34,-272.7l261.45 -184.04z"/>
   <polygon class="fil0" points="2844.18,2096.25 2615.38,1964.31 2410.11,2273.06 2638.88,2404.97 "/>
   <polygon class="fil0" points="3212.69,2582.27 2983.91,2450.34 2722.46,2568.2 2951.24,2700.14 "/>
   <polygon class="fil7" points="2155.67,4413.08 1926.89,4281.18 1898.22,3995.82 2127,4127.76 "/>
   <polygon class="fil7" points="1321.69,4205.02 1550.48,4336.99 1715.19,4004.85 1486.42,3872.91 "/>
   <path class="fil8" d="M2297.92 3731.02c-218.26,126.02 -395.22,23.85 -395.22,-228.17 0,-252.03 176.96,-558.48 395.22,-684.5 218.26,-126.01 395.2,-23.88 395.2,228.14 0,252.06 -176.94,558.52 -395.2,684.53zm914.77 -820.2l0 -328.55 -261.45 117.87c-15.75,-60.68 -39.79,-112.68 -70.62,-155.61l164.72 -332.14 -201.16 -116.14 -205.3 308.72c-52.57,-5.26 -109.63,-0.04 -170.05,16.65l-28.67 -285.33 -284.49 164.22 -28.67 318.45c-60.42,53.1 -117.47,113.77 -170.06,179.74l-205.3 -71.68 -201.16 348.44 164.71 141.92c-30.82,78.53 -54.84,158.29 -70.6,237.17l-261.45 184.01 0 328.51 261.45 -117.83c15.76,60.64 39.78,112.68 70.6,155.61l-164.71 332.14 201.16 116.14 205.3 -308.72c52.59,5.22 109.64,0.03 170.06,-16.65l28.67 285.32 284.49 -164.25 28.67 -318.45c60.42,-53.06 117.48,-113.74 170.05,-179.71l205.3 71.69 201.16 -348.44 -164.72 -141.92c30.83,-78.53 54.87,-158.29 70.62,-237.18l261.45 -184z"/>
   <polygon class="fil9" points="1728.15,2666.76 1956.94,2798.7 1751.64,2727.02 1522.87,2595.08 "/>
   <polygon class="fil0" points="1550.48,3075.46 1321.69,2943.52 1522.87,2595.08 1751.64,2727.02 "/>
   <polygon class="fil7" points="1321.69,2943.52 1550.48,3075.46 1715.19,3217.38 1486.42,3085.44 "/>
   <polygon class="fil0" points="1415.8,3322.61 1644.59,3454.55 1383.14,3638.56 1154.36,3506.66 "/>
   <polygon class="fil7" points="1154.36,3506.66 1383.14,3638.56 1383.14,3967.07 1154.36,3835.16 "/>
   <polygon class="fil0" points="2440.16,2136.29 2211.38,2004.32 1926.89,2168.61 2155.67,2300.51 "/>
   <path class="fil1" d="M4915.2 10448.65l3316.99 -1915.05c33.73,-19.51 33.76,-51.12 0.04,-70.63l-306.88 -177.55c-33.73,-19.51 -88.41,-19.54 -122.17,-0.07l-3317.87 1915.09c-33.77,19.47 -33.77,51.08 0,70.55l307.65 177.66c33.76,19.47 88.48,19.47 122.24,0z"/>
   <path class="fil10" d="M8140.47 1140.4l-2990.39 1726.49c-84.35,48.72 -152.75,167.19 -152.75,264.59l0 7093.3c0,97.44 68.4,136.92 152.75,88.19l2990.43 -1726.45c84.38,-48.72 152.75,-167.22 152.75,-264.59l-0.04 -7093.34c0,-97.4 -68.36,-136.87 -152.75,-88.19z"/>
   <path class="fil10" d="M5150.08 2866.89l2990.39 -1726.49c75.46,-43.53 137.94,-16.44 150.39,59.41 -11.47,-90.91 -74.15,-191.77 -150.39,-235.8l-124.35 -71.79c-84.39,-48.72 -221.19,-48.72 -305.54,0l-2990.4 1726.5c-42.15,24.34 -80.36,66.14 -108.02,114.01l429.93 248.18c27.63,-47.87 65.83,-89.64 107.99,-114.02z"/>
   <path class="fil11" d="M4567.5 9976.56c0,97.44 68.37,215.9 152.76,264.59l124.38 71.82c76.28,44.03 195.06,47.87 279.55,12.28 -72.01,27.31 -126.86,-13.26 -126.86,-100.47l0 -7093.3c0,-48.72 17.11,-102.66 44.76,-150.57l-429.93 -248.18c-27.62,47.88 -44.73,101.85 -44.73,150.57l0.07 7093.26z"/>
   <path class="fil4" d="M5232.31 3812.27l2825.96 -1631.6c50.66,-29.24 91.69,-5.54 91.69,52.92l0.04 5248.8c0,58.46 -41.07,129.54 -91.69,158.75l-2825.96 1631.6c-50.63,29.21 -91.69,5.5 -91.69,-52.91l0 -5248.81c0,-58.46 41.03,-129.54 91.65,-158.75z"/>
   <path class="fil11" d="M6645.36 8708.97c-117.19,67.66 -212.16,232.19 -212.16,367.52 0,135.29 94.97,190.15 212.16,122.49 117.16,-67.64 212.16,-232.17 212.16,-367.5 0,-135.29 -95,-190.14 -212.16,-122.51z"/>
   <g>
    <path class="fil11" d="M6645.29 2272.75c-29.67,17.14 -53.73,58.8 -53.73,93.06 0,34.29 24.06,48.15 53.73,31.01 29.71,-17.11 53.77,-58.77 53.77,-93.06 0,-34.26 -24.06,-48.16 -53.77,-31.01z"/>
    <path class="fil11" d="M6137.75 2818.74c-59.37,34.29 -107.45,117.62 -107.45,186.16 0,68.55 48.08,96.31 107.49,62.05 59.33,-34.25 107.42,-117.61 107.42,-186.16 0,-68.54 -48.12,-96.3 -107.46,-62.05z"/>
    <path class="fil11" d="M6400.54 2795.49c0,45.69 34.18,63.01 76.37,38.63l707.07 -408.2c42.16,-24.34 76.38,-81.14 76.38,-126.82 -0.03,-45.69 -34.22,-63.01 -76.41,-38.63l-707.04 408.2c-42.19,24.34 -76.37,81.14 -76.37,126.82z"/>
   </g>
   <path class="fil10" d="M4805.31 4039.39c47.45,27.41 85.97,94.08 85.97,148.94 0,54.82 -38.52,77.05 -85.97,49.6 -47.52,-27.41 -86.01,-94.05 -86.01,-148.91 0,-54.82 38.49,-77.04 86.01,-49.63z"/>
   <path class="fil10" d="M4805.31 4701.76c47.45,27.45 85.97,94.12 85.97,148.95 0,54.82 -38.52,77.04 -85.97,49.63 -47.52,-27.41 -86.01,-94.08 -86.01,-148.91 0,-54.85 38.49,-77.04 86.01,-49.67z"/>
   <path class="fil12" d="M4778.75 4052.65c47.48,27.41 85.97,94.12 85.97,148.94 0,54.83 -38.49,77.05 -85.97,49.64 -47.52,-27.41 -85.98,-94.09 -85.98,-148.91 0,-54.85 38.49,-77.08 85.98,-49.67z"/>
   <path class="fil12" d="M4778.75 4715.06c47.48,27.41 85.97,94.09 85.97,148.94 0,54.83 -38.49,77.05 -85.97,49.64 -47.52,-27.45 -85.98,-94.12 -85.98,-148.94 0,-54.82 38.49,-77.05 85.98,-49.64z"/>
   <path class="fil4" d="M8723.19 2399.57c0,-58.46 -41.03,-82.13 -91.69,-52.92l-338.24 195.27 -2487.72 1436.3c-50.62,29.24 -91.65,100.29 -91.65,158.75l0.03 5248.8c0,58.46 41.03,82.13 91.66,52.92l2488.56 -1436.83 337.4 -194.74c50.62,-29.24 91.68,-100.33 91.68,-158.75l-0.03 -5248.8z"/>
   <path class="fil2" d="M8723.19 2399.57l17.64 0c-0.04,-23.6 -5.86,-44.03 -17.96,-59.27 -11.99,-15.31 -30.69,-23.99 -50.41,-23.81 -16.19,0 -32.98,5.22 -49.78,14.85l-338.24 195.3 -2487.72 1436.3c-28.86,16.76 -53.34,43.96 -71.26,74.89 -17.82,30.98 -29.14,65.8 -29.21,99.14l0.04 5248.8c0,23.56 5.82,44.03 17.92,59.27 11.99,15.31 30.72,23.98 50.41,23.81 16.19,-0.04 32.98,-5.22 49.74,-14.89l2488.6 -1436.83 337.4 -194.73c28.82,-16.76 53.34,-43.96 71.26,-74.9 17.85,-30.97 29.14,-65.79 29.24,-99.13l-0.03 -5248.8 -35.28 0 0.04 5248.8c0.07,25.09 -9.14,55.04 -24.52,81.5 -15.24,26.52 -36.59,49.49 -58.35,61.98l-337.4 194.73 -2488.56 1436.82c-12.67,7.31 -23.67,10.17 -32.14,10.17 -10.34,-0.21 -17.01,-3.5 -22.83,-10.55 -5.75,-7.08 -10.23,-19.36 -10.23,-37.25l-0.03 -5248.8c-0.07,-25.09 9.13,-55.04 24.48,-81.5 15.24,-26.53 36.58,-49.49 58.35,-61.98l2487.72 -1436.3 338.24 -195.26c12.67,-7.34 23.67,-10.16 32.14,-10.16 10.34,0.17 17,3.49 22.86,10.51 5.71,7.13 10.23,19.4 10.23,37.29l17.64 0z"/>
   <path class="fil2" d="M5764.58 9468.88c-11.74,0 -22.79,-2.83 -32.63,-8.5 -23,-13.3 -35.66,-39.78 -35.66,-74.61l-0.04 -5248.8c0,-65.02 44.13,-141.5 100.47,-174.03l2487.72 -1436.3 17.64 30.55 -2487.72 1436.3c-44.91,25.93 -82.83,91.62 -82.83,143.48l0.03 5248.8c0,21.37 6.56,37.43 18.03,44.06 11.47,6.6 28.65,4.24 47.17,-6.43l2488.56 -1436.78 17.64 30.51 -2488.6 1436.8c-17.22,9.98 -34.15,14.95 -49.78,14.95z"/>
   <path class="fil5" d="M5764.58 9468.88l0 -17.64c-8.92,0 -16.72,-2.04 -23.84,-6.13l0.03 0c-8.29,-4.84 -14.64,-11.78 -19.37,-21.55 -4.69,-9.79 -7.48,-22.52 -7.48,-37.79l-0.03 -5248.8c-0.07,-28.54 9.95,-61.39 26.74,-90.39 16.72,-29.07 40.15,-54.15 64.91,-68.36l2472.44 -1427.48 0 0 -2472.44 1427.48c-26.1,15.2 -48.29,40.18 -64.7,68.47 -16.3,28.36 -26.85,60.08 -26.95,90.28l0.03 5248.8c0,12.49 1.87,23.99 6.04,34.26 4.12,10.15 10.9,19.32 20.81,25.08l0 0c7.37,4.27 15.66,6.06 23.81,6.04 13.76,-0.05 27.41,-4.7 40.96,-12.44l0.04 -0.02 2473.32 -1427.98 8.82 15.24 15.24 -8.82 -8.82 -15.27 -2488.56 1436.79 -0.04 0.04c-15.1,8.75 -29.1,12.59 -40.96,12.55l0 35.28c19.44,0 39.3,-6.13 58.63,-17.32l2503.88 -1445.61 -35.31 -61.07 -2503.84 1445.62 0 0c-9.63,5.56 -18.14,7.8 -23.36,7.73l-6.21 -1.31 0.04 0c-1.55,-0.88 -3.81,-3.03 -5.82,-7.91 -1.98,-4.8 -3.42,-11.99 -3.39,-20.88l-0.03 -5248.8c-0.11,-21.63 8.32,-48.72 22.22,-72.64 13.76,-23.99 32.99,-44.8 51.79,-55.56l2502.99 -1445.09 -35.27 -61.13 -2503 1445.11c-31.61,18.31 -58.38,47.74 -77.82,81.28 -19.33,33.62 -31.4,71.51 -31.47,108.03l0.04 5248.8c0,19.54 3.52,37.47 10.93,52.99 7.34,15.49 18.81,28.43 33.52,36.9l0.03 0c12.6,7.3 26.88,10.9 41.45,10.86l0 -17.64z"/>
   <path class="fil2" d="M8302.96 8017.13l-17.64 -30.51 337.4 -194.77c44.91,-25.97 82.87,-91.65 82.87,-143.48l-0.04 -5248.8c0,-21.38 -6.6,-37.43 -18.03,-44.06 -11.39,-6.6 -28.64,-4.31 -47.2,6.42l-338.24 195.26 -17.64 -30.55 338.24 -195.3c30.13,-17.35 59.45,-19.68 82.48,-6.38 22.97,13.26 35.67,39.79 35.67,74.61l0.03 5248.8c0,65.02 -44.13,141.47 -100.5,173.99l-337.4 194.77z"/>
   <path class="fil5" d="M8302.96 8017.13l15.28 -8.82 -8.79 -15.24 322.09 -185.95c26.1,-15.2 48.29,-40.21 64.73,-68.51 16.3,-28.36 26.85,-60.04 26.95,-90.24l-0.03 -5248.8c-0.04,-12.52 -1.87,-24.02 -6.03,-34.25 -4.17,-10.16 -10.94,-19.34 -20.82,-25.09 -7.37,-4.27 -15.7,-6.07 -23.84,-6.07 -13.73,0.08 -27.42,4.7 -41,12.49l-322.97 186.45 0 0 322.97 -186.45c15.14,-8.75 29.14,-12.59 41,-12.59 8.92,0.03 16.68,2.08 23.84,6.17l0.18 0.11 -0.18 -0.11c8.26,4.8 14.61,11.75 19.34,21.56 4.69,9.77 7.51,22.47 7.51,37.78l0.03 5248.8c0.04,28.51 -9.94,61.35 -26.77,90.35 -16.72,29.07 -40.15,54.15 -64.91,68.37l-337.36 194.77 8.78 15.27 15.28 -8.82 -15.28 8.82 8.82 15.28 337.4 -194.77c31.61,-18.31 58.38,-47.73 77.82,-81.28 19.37,-33.62 31.43,-71.51 31.5,-107.99l-0.03 -5248.8c-0.04,-19.54 -3.57,-37.5 -10.94,-52.99 -7.37,-15.48 -18.84,-28.43 -33.55,-36.9l0 0c-12.63,-7.3 -26.92,-10.93 -41.48,-10.9 -19.48,0 -39.34,6.17 -58.64,17.29l-353.52 204.11 35.28 61.14 353.52 -204.12c9.63,-5.61 18.13,-7.79 23.36,-7.76l6.17 1.34c1.55,0.89 3.81,3.04 5.82,7.91 1.98,4.79 3.42,11.99 3.42,20.88l0.04 5248.8c0.07,21.63 -8.33,48.69 -22.23,72.61 -13.79,24.02 -33.02,44.83 -51.82,55.59l-352.67 203.59 35.31 61.07 15.24 -8.82 -8.82 -15.28z"/>
   <path class="fil3" d="M7218.52 3619.3c316.58,-182.78 573.19,-34.61 573.19,330.94 0,365.55 -256.61,810.05 -573.19,992.82 -316.55,182.78 -573.19,34.61 -573.19,-330.94 0,-365.55 256.64,-810.05 573.19,-992.82z"/>
   <path class="fil2" d="M7218.52 3906.99c102.7,-59.3 185.99,-11.22 185.99,107.35 0,118.6 -83.29,262.82 -185.99,322.12 -102.69,59.27 -185.95,11.22 -185.95,-107.38 0,-118.61 83.26,-262.79 185.95,-322.09z"/>
   <path class="fil2" d="M7581 4539.34c0,-194.84 -136.81,-273.82 -305.5,-176.39l-105.52 60.89c-168.7,97.41 -305.51,334.33 -305.51,529.17l0 52.42c97.55,32.39 220.31,14.86 354.05,-62.37 137.55,-79.41 263.7,-208.28 362.48,-358.53l0 -45.19z"/>
   <path class="fil5" d="M7135.48 4361.83c-61.03,0 -102.91,-48.62 -102.91,-132.75 0,-118.61 83.26,-262.79 185.95,-322.09 29.85,-17.25 58.07,-25.4 83.08,-25.4 61,0 102.91,48.65 102.91,132.75 0,118.6 -83.29,262.82 -185.99,322.12 -29.84,17.22 -58.07,25.37 -83.04,25.37z"/>
   <path class="fil5" d="M6963.57 5020.89c-35.21,0 -68.4,-5.26 -99.1,-15.46l0 -52.42c0,-194.84 136.81,-431.76 305.51,-529.17l105.52 -60.89c49,-28.32 95.35,-41.73 136.41,-41.73 100.23,0 169.09,79.91 169.09,218.12l0 45.19c-98.78,150.25 -224.93,279.12 -362.48,358.53 -91.65,52.92 -178.19,77.83 -254.95,77.83z"/>
   <path class="fil2" d="M6109.46 5749.19l737.59 -425.83c33.76,-19.51 61.1,-3.71 61.1,35.27l0 24.35c0,38.98 -27.34,86.36 -61.1,105.83l-737.59 425.84c-33.73,19.51 -61.1,3.7 -61.1,-35.28l0 -24.34c0,-38.98 27.37,-86.36 61.1,-105.84z"/>
   <path class="fil3" d="M6082.15 5923.01c-20.03,0 -33.79,-15.98 -33.79,-43.64l0 -24.34c0,-38.98 27.37,-86.36 61.1,-105.84l737.59 -425.83c9.8,-5.68 19.08,-8.36 27.3,-8.36 20.04,0 33.8,15.98 33.8,43.63l0 24.35c0,38.98 -27.34,86.36 -61.1,105.83l-737.59 425.84c-9.81,5.68 -19.09,8.36 -27.31,8.36z"/>
   <path class="fil2" d="M6078.91 6263.23l2231.67 -1288.45c16.9,-9.74 30.55,-1.84 30.55,17.64l0 260.38c0,19.47 -13.65,43.18 -30.55,52.92l-2231.67 1288.45c-16.86,9.73 -30.55,1.87 -30.55,-17.61l0 -260.42c0,-19.47 13.69,-43.14 30.55,-52.91z"/>
   <path class="fil5" d="M6065.26 6598.37c-10.02,0 -16.9,-8.01 -16.9,-21.81l0 -260.42c0,-19.47 13.69,-43.14 30.55,-52.91l2231.67 -1288.45c4.9,-2.83 9.56,-4.17 13.65,-4.17 10.06,0 16.9,7.98 16.9,21.81l0 260.38c0,19.47 -13.65,43.18 -30.55,52.92l-15.98 9.24c-41.8,-53.45 -72.39,-88.79 -100.08,-88.79 -7.69,0 -15.17,2.75 -22.62,8.57 -26.21,20.6 -7.16,65.23 35.7,130.46l-2128.69 1228.97c-4.91,2.86 -9.53,4.2 -13.65,4.2z"/>
   <path class="fil2" d="M6109.46 6907.47l737.59 -425.84c33.76,-19.51 61.1,-3.7 61.1,35.28l0 24.34c0,38.95 -27.34,86.36 -61.1,105.83l-737.59 425.84c-33.73,19.51 -61.1,3.71 -61.1,-35.27l0 -24.35c0,-38.98 27.37,-86.32 61.1,-105.83z"/>
   <path class="fil3" d="M6082.15 7081.28c-20.03,0 -33.79,-15.98 -33.79,-43.63l0 -24.35c0,-38.98 27.37,-86.32 61.1,-105.83l737.59 -425.84c9.8,-5.68 19.08,-8.36 27.3,-8.36 20.04,0 33.8,15.98 33.8,43.64l0 24.34c0,38.95 -27.34,86.36 -61.1,105.83l-737.59 425.84c-9.81,5.68 -19.09,8.36 -27.31,8.36z"/>
   <path class="fil2" d="M6078.91 7421.5l2231.67 -1288.45c16.9,-9.73 30.55,-1.87 30.55,17.64l0 260.39c0,19.47 -13.65,43.18 -30.55,52.91l-2231.67 1288.45c-16.86,9.74 -30.55,1.87 -30.55,-17.64l0 -260.38c0,-19.47 13.69,-43.18 30.55,-52.92z"/>
   <path class="fil5" d="M6065.26 7756.61c-10.02,0 -16.9,-7.98 -16.9,-21.81l0 -260.38c0,-19.47 13.69,-43.18 30.55,-52.92l2231.67 -1288.45c4.9,-2.82 9.56,-4.16 13.65,-4.16 10.02,0 16.9,7.97 16.9,21.8l0 260.39c0,19.47 -13.65,43.18 -30.55,52.91l-2231.67 1288.45c-4.91,2.83 -9.53,4.17 -13.65,4.17z"/>
   <path class="fil2" d="M6969.28 7569.35l880.89 -508.56c33.76,-19.51 61.1,-3.71 61.1,35.28l0 272.52c0,38.98 -27.34,86.36 -61.1,105.83l-880.89 508.6c-33.76,19.47 -61.13,3.7 -61.13,-35.28l0 -272.55c0,-38.99 27.37,-86.36 61.13,-105.84z"/>
   <path class="fil3" d="M6941.98 7991.34c-20.04,0 -33.83,-15.94 -33.83,-43.6l0 -272.55c0,-38.99 27.37,-86.36 61.13,-105.84l880.89 -508.56c9.81,-5.68 19.05,-8.36 27.27,-8.36 20.07,0 33.83,15.98 33.83,43.64l0 272.52c0,38.98 -27.34,86.36 -61.1,105.83l-880.89 508.6c-9.8,5.64 -19.08,8.32 -27.3,8.32z"/>
   <path class="fil13" d="M9057.66 6420c0,0 -433.39,-597.82 -459.81,-668.97 -19.97,-53.62 1.37,-133.39 6.31,-170.46 4.94,-37.04 12.1,-119.59 18.28,-142.56 10.79,-40.08 -41.17,-31.86 -70.31,4.59 -29.85,37.32 -39.41,110.17 -54.26,122.16 -14.82,12 -130.63,-156.24 -191.06,-234.1 -60.4,-77.86 -98.18,-124.78 -134.91,-95.92 -26.45,20.81 -6.77,66.14 37.01,132.47 43.81,66.28 63.22,97.01 69.81,111.23 6.6,14.25 -29.42,15.38 -48.86,45.29 -15.16,23.36 -1.02,61.18 -21.09,79.17 -20.14,18.06 -38.88,50.48 -16.83,86.99 28.08,46.57 84.42,113.07 149.19,157.98 64.81,44.91 91.09,60.67 129.29,121.74 38.25,61.07 383.54,684.53 406.72,721.92 23.14,37.4 68.16,113.63 136.28,115.79 68.16,2.18 625.4,-477.66 654.12,-501.58 91.86,-76.59 120.83,-87.84 136.67,-18.84 4.97,21.59 8.22,46.21 11.67,74.01 11.05,87.35 70.52,399.98 70.52,399.98 0,0 281.87,136.6 513.97,69.25 232.09,-67.31 309.91,-164.25 309.91,-164.25l-116.1 -189.23c31.61,-78.11 177.59,-393.98 223.42,-615.35l-726.73 -117.34c-14.92,-3.24 -38.73,-9.2 -69.14,-17.21 -39.9,-10.51 -140.19,-45.76 -217.56,21.52 -250.08,217.52 -746.51,671.72 -746.51,671.72z"/>
   <g>
    <path class="fil11" d="M10498.44 10086.7l-130.28 181.04c0,0 60.32,35.39 189.23,40.25 116.55,4.46 148.62,-33.82 152.93,-42.99 19.65,-42.24 -11.05,-118.4 -19.48,-183.83l-192.4 5.53z"/>
    <path class="fil11" d="M10375.49 10180.83c0,0 -157.86,-10.06 -267.05,-23.81 -109.18,-13.77 -195.54,39.51 -169.83,84.49 25.65,44.9 85.69,82.29 179.25,113.72 80.15,27 176.21,46.61 259.89,71.66 85.76,25.65 140.65,55.03 189.23,38.31 54.15,-18.67 77.44,-40.29 72.82,-79.73 -4.59,-39.44 -43.85,-166.44 -43.85,-166.44l-220.46 -38.2z"/>
   </g>
   <path class="fil14" d="M10710.32 9904.81c0,0 -19.76,164.43 -21.28,199.74 -1.51,35.28 -160.48,46.61 -190.6,-17.85l-4.94 -201.04 216.82 19.15z"/>
   <path class="fil13" d="M10550.01 10005.98l56.87 249.46c0,0 5.36,30.44 -124.6,49.77 -129.96,19.4 -333.69,-67.93 -368.41,-85.69 -34.67,-17.77 -38.8,-53.09 88.8,-46.03 127.6,7.09 172.82,7.34 172.82,7.34l-41.41 -110.6 215.93 -64.25z"/>
   <path class="fil14" d="M10817.6 5861.31l89.81 -24.8c0,0 188.21,595.03 208.99,652.32 20.81,57.33 44.27,118.43 3.81,189.33 -48.23,84.39 -302.61,424.15 -302.61,424.15l-161.47 -158.01 183.16 -335.63 -162.03 -328.3 140.34 -419.06z"/>
   <path class="fil11" d="M9892.68 5087.88c0,0 -72.03,-115.29 3.81,-256.47 89.43,-166.34 289.32,-247.48 527.19,-216.36 109.89,14.39 239.61,104.6 310.73,242.36 78.18,151.27 85.48,456.17 104.88,571.46l-946.61 -340.99z"/>
   <path class="fil13" d="M9887.29 5152.97c0,0 -56.52,107.63 -46.75,117.4 9.81,9.77 47.49,17.71 47.49,17.71l-0.74 -135.11z"/>
   <path class="fil13" d="M10058.77 4812.78c-61.45,40.08 -167.25,113.35 -171.91,355.14 -4.76,248.22 30.31,328.23 66.99,356.98 24.77,19.4 169.66,9.59 231.89,-5.05 62.19,-14.6 241.12,-102.97 305.5,-237.34 75.71,-158.12 60.4,-389.61 -52.32,-456.78 -158.57,-94.62 -328.11,-46.85 -380.15,-12.95z"/>
   <path class="fil2" d="M10710.28 6665.89c108.8,169.3 212.2,318.42 234.25,508.67 46.6,401.81 -106.26,861.16 -138.68,1158.27 0,0 102.66,133.46 102.55,290.3 -0.07,122.77 -198.08,1281.68 -198.08,1281.68 0,0 -144.04,43.89 -216.82,-19.15l-136.1 -2131.98 71.68 -259.54 281.2 -828.25z"/>
   <path class="fil2" d="M10357.4 7753.68l71.68 -259.54c0,0 198.76,-48.05 388.52,-154.09 0,0 -73.56,133.56 -284.2,206.79l-109.72 333.66 -9.45 763.52 -56.83 -890.34z"/>
   <path class="fil3" d="M10414.23 8644.02l-56.83 -890.27 71.68 -259.61 0 0c0,0 198.76,-48.05 388.52,-154.09 0,0 -73.56,133.56 -284.2,206.79l-109.72 333.66 -9.45 763.52z"/>
   <path class="fil2" d="M10710.28 6665.89c58.21,95 197.31,257.46 167.78,413.56 -35.88,189.16 -137.65,322.12 -448.98,414.69l-291.99 1057.45c0,0 152.04,142.31 198.54,277.64 46.43,135.32 214.38,1176.75 214.38,1176.75 0,0 -51.93,84.78 -215.93,64.25 0,0 -571.85,-1306.13 -612.28,-1390.23 -40.36,-84.1 -66.57,-146.97 -48.4,-283.95 18.2,-136.95 213,-1635.16 213,-1635.16l823.88 -95z"/>
   <g>
    <path class="fil15" d="M10606.39 9919.66c-24.06,0 -49.29,-2.82 -72.22,-10.94 -14.57,-88.69 -37.67,-228.42 -63.39,-378.76l-113.38 -1776.21 56.83 890.27 9.45 -763.52 109.72 -333.66c210.64,-73.23 284.2,-206.79 284.2,-206.79l0 0c-189.76,106.04 -388.52,154.09 -388.52,154.09 311.33,-92.57 413.1,-225.53 448.98,-414.69 2.75,-14.64 4.06,-29.32 4.06,-44.03 0.03,-54.92 -17.78,-109.78 -42.69,-161.39 52.43,94.33 92.36,190.57 105.1,300.53 6.1,52.6 8.78,106.15 8.78,160.19 -0.14,359.06 -119.31,739.85 -147.46,998.08l0 0c0,0 102.66,133.46 102.55,290.3 -0.07,122.77 -198.08,1281.68 -198.08,1281.68 0,0 -48.79,14.85 -103.93,14.85zm122.94 -3224.21c-6.98,-10.44 -13.4,-20.32 -19.05,-29.56l0 0c6.35,9.91 12.74,19.75 19.05,29.56z"/>
    <path class="fil15" d="M10383.36 10073.44c-15.17,0 -31.57,-0.99 -49.28,-3.21 0,0 -571.85,-1306.13 -612.28,-1390.23 -31.47,-65.54 -54.3,-118.18 -54.26,-203.06 0,-24.02 1.87,-50.66 5.86,-80.89 18.2,-136.95 213,-1635.16 213,-1635.16l0 0c0,0 181.47,87.91 373.03,87.91 47.24,0 95.04,-5.32 140.94,-18.66 232.09,-67.31 309.91,-164.25 309.91,-164.25l0 0c52.74,86.08 171.94,227.57 171.84,369.53 0,14.71 -1.31,29.39 -4.06,44.03 -35.88,189.16 -137.65,322.12 -448.98,414.69l0 0 -71.68 259.61 -220.31 797.84 0 0c0,0 152.04,142.31 198.54,277.64 46.43,135.32 214.38,1176.75 214.38,1176.75 0,0 -41.31,67.46 -166.65,67.46z"/>
   </g>
   <path class="fil2" d="M10817.6 5861.31l-726.73 -117.34c-14.88,-3.24 -38.87,-9.27 -69.25,-17.25l-0.07 -0.03c0,0 -30.97,455.65 -217.34,560.21l-0.04 0c4.41,21.73 8.26,46.18 11.71,74.01 11.05,87.35 70.52,399.98 70.52,399.98 0,0 281.87,136.6 513.97,69.25 232.09,-67.31 309.91,-164.25 309.91,-164.25l-116.1 -189.23c31.61,-78.11 177.59,-393.98 223.42,-615.35z"/>
   <path class="fil16" d="M10677.26 6280.37l0 0c52.42,-127.67 113.52,-289.56 140.34,-419.06l0 0c-26.82,129.5 -87.92,291.39 -140.34,419.06z"/>
   <path class="fil10" d="M10259.43 6848.8c-191.56,0 -373.03,-87.91 -373.03,-87.91 0,0 -59.47,-312.63 -70.52,-399.98 -3.45,-27.83 -7.3,-52.28 -11.71,-74.01l0.04 0c186.37,-104.56 217.34,-560.21 217.34,-560.21l0.07 0.03c30.38,7.98 54.37,14.01 69.25,17.25l726.73 117.34c-26.82,129.5 -87.92,291.39 -140.34,419.06 -37.15,90.56 -69.96,163.87 -83.08,196.29l0 0 116.1 189.23c0,0 -77.82,96.94 -309.91,164.25 -45.9,13.34 -93.7,18.66 -140.94,18.66z"/>
   <path class="fil11" d="M10625.86 6402.26c-2.96,6.84 -233.61,130.42 -302.12,149.33 108.02,-5.33 197.8,-30.73 270.44,-74.93l31.68 -74.4z"/>
   <path class="fil11" d="M10040.64 4824.99c0,0 -33.87,229.41 48.19,363.96 0,0 30.79,-91.34 108.37,-73.87 78.11,17.57 81.35,118.99 27.13,176.49 -54.26,57.5 -114.62,36.73 -114.62,36.73 0,0 -12.17,165.8 -18.73,304.8 -6.32,133.98 -43.67,441.99 112.75,565.82 156.45,123.86 548.53,165.66 732.29,-91.23 102.27,-142.91 -33.58,-395.54 -96.73,-678.82 -58.1,-260.45 -90.77,-646.43 -367.13,-708.34 -276.34,-61.91 -431.52,104.46 -431.52,104.46z"/>
   <path class="fil1" d="M10349.96 2712.34l-58.28 33.65c4.65,-21.45 7.97,-42.72 7.97,-63.22 0,-118.04 -82.87,-165.84 -185.07,-106.82 -29.74,17.15 -57.39,41.95 -82.3,70.7l0.03 -0.85c0,-158.89 -111.51,-223.31 -249.13,-143.86 -137.58,79.45 -249.13,272.63 -249.13,431.52 0,8.11 0.46,15.77 1.06,23.35 -29.1,-5.18 -63.85,1.98 -101.21,23.53 -102.24,59.02 -185.07,202.5 -185.07,320.54 0,16.26 1.73,31 4.69,44.52l-31.04 17.88c-84.39,48.72 -152.76,143.76 -152.76,212.3 0,68.55 68.37,84.6 152.76,35.92l1127.48 -650.95c84.34,-48.72 152.75,-143.76 152.75,-212.3 0,-68.55 -68.41,-84.63 -152.75,-35.91z"/>
  </g>
 </g>
</svg>
